<svg width="24" height="28" viewBox="0 0 24 28" fill="none" xmlns="http://www.w3.org/2000/svg">
<path d="M9.61355 6.28003L10.6669 5.21336V11.3334C10.6669 11.687 10.8074 12.0261 11.0574 12.2762C11.3075 12.5262 11.6466 12.6667 12.0002 12.6667C12.3538 12.6667 12.693 12.5262 12.943 12.2762C13.1931 12.0261 13.3336 11.687 13.3336 11.3334V5.21336L14.3869 6.28003C14.5108 6.405 14.6583 6.50419 14.8208 6.57188C14.9833 6.63957 15.1575 6.67442 15.3336 6.67442C15.5096 6.67442 15.6838 6.63957 15.8463 6.57188C16.0088 6.50419 16.1563 6.405 16.2802 6.28003C16.4052 6.15607 16.5044 6.00861 16.5721 5.84613C16.6398 5.68365 16.6746 5.50937 16.6746 5.33336C16.6746 5.15734 16.6398 4.98307 16.5721 4.82059C16.5044 4.65811 16.4052 4.51064 16.2802 4.38669L12.9469 1.05336C12.8201 0.93197 12.6706 0.836817 12.5069 0.773358C12.1823 0.64 11.8182 0.64 11.4936 0.773358C11.3299 0.836817 11.1804 0.93197 11.0536 1.05336L7.72022 4.38669C7.46915 4.63776 7.3281 4.97829 7.3281 5.33336C7.3281 5.68843 7.46915 6.02895 7.72022 6.28003C7.97129 6.5311 8.31182 6.67215 8.66689 6.67215C9.02196 6.67215 9.36248 6.5311 9.61355 6.28003ZM20.0002 8.08002C19.8741 7.95396 19.7245 7.85395 19.5598 7.78572C19.3951 7.7175 19.2185 7.68238 19.0402 7.68238C18.8619 7.68238 18.6854 7.7175 18.5207 7.78572C18.356 7.85395 18.2063 7.95396 18.0802 8.08002C17.9541 8.20609 17.8541 8.35576 17.7859 8.52048C17.7177 8.68519 17.6826 8.86174 17.6826 9.04002C17.6826 9.21831 17.7177 9.39486 17.7859 9.55957C17.8541 9.72429 17.9541 9.87396 18.0802 10C19.2833 11.2026 20.1027 12.735 20.4347 14.4033C20.7668 16.0716 20.5967 17.801 19.9459 19.3726C19.2951 20.9442 18.1928 22.2876 16.7785 23.2327C15.3641 24.1778 13.7013 24.6823 12.0002 24.6823C10.2992 24.6823 8.63632 24.1778 7.22199 23.2327C5.80766 22.2876 4.70537 20.9442 4.05455 19.3726C3.40373 17.801 3.23361 16.0716 3.5657 14.4033C3.89779 12.735 4.71717 11.2026 5.92022 10C6.04629 9.87396 6.14629 9.72429 6.21452 9.55957C6.28275 9.39486 6.31786 9.21831 6.31786 9.04002C6.31786 8.86174 6.28275 8.68519 6.21452 8.52048C6.14629 8.35576 6.04629 8.20609 5.92022 8.08002C5.79415 7.95396 5.64448 7.85395 5.47977 7.78572C5.31505 7.7175 5.13851 7.68238 4.96022 7.68238C4.78193 7.68238 4.60539 7.7175 4.44067 7.78572C4.27595 7.85395 4.12629 7.95396 4.00022 8.08002C2.42944 9.66024 1.36182 11.6702 0.93205 13.8565C0.502276 16.0428 0.729595 18.3073 1.58533 20.3645C2.44107 22.4218 3.88688 24.1795 5.74041 25.4159C7.59393 26.6524 9.77212 27.3123 12.0002 27.3123C14.2283 27.3123 16.4065 26.6524 18.26 25.4159C20.1136 24.1795 21.5594 22.4218 22.4151 20.3645C23.2708 18.3073 23.4982 16.0428 23.0684 13.8565C22.6386 11.6702 21.571 9.66024 20.0002 8.08002Z" fill="black"/>
</svg>
